<?xml version="1.0" encoding="UTF-8" standalone="no"?>
<!-- Created with Inkscape (http://www.inkscape.org/) -->

<svg
   xmlns:dc="http://purl.org/dc/elements/1.1/"
   xmlns:cc="http://creativecommons.org/ns#"
   xmlns:rdf="http://www.w3.org/1999/02/22-rdf-syntax-ns#"
   xmlns:svg="http://www.w3.org/2000/svg"
   xmlns="http://www.w3.org/2000/svg"
   xmlns:sodipodi="http://sodipodi.sourceforge.net/DTD/sodipodi-0.dtd"
   xmlns:inkscape="http://www.inkscape.org/namespaces/inkscape"
   width="425.19684"
   height="425.19684"
   id="svg2"
   version="1.1"
   inkscape:version="0.48.2 r9819"
   sodipodi:docname="cutsheet.svg">
  <defs
     id="defs4" />
  <sodipodi:namedview
     id="base"
     pagecolor="#ffffff"
     bordercolor="#666666"
     borderopacity="1.0"
     inkscape:pageopacity="0.0"
     inkscape:pageshadow="2"
     inkscape:zoom="0.88940775"
     inkscape:cx="360.12805"
     inkscape:cy="283.14389"
     inkscape:document-units="mm"
     inkscape:current-layer="layer3"
     showgrid="false"
     units="mm"
     showguides="true"
     inkscape:guide-bbox="true"
     inkscape:window-width="1366"
     inkscape:window-height="648"
     inkscape:window-x="0"
     inkscape:window-y="0"
     inkscape:window-maximized="1">
    <sodipodi:guide
       orientation="0,1"
       position="0,14.173228"
       id="guide3781" />
    <sodipodi:guide
       orientation="1,0"
       position="0,0"
       id="guide3787" />
    <sodipodi:guide
       orientation="1,0"
       position="14.173228,0"
       id="guide3852" />
    <sodipodi:guide
       orientation="1,0"
       position="212.59843,0"
       id="guide3940" />
    <sodipodi:guide
       orientation="0,1"
       position="0,212.59843"
       id="guide3942" />
    <sodipodi:guide
       orientation="1,0"
       position="411.02362,0"
       id="guide4208" />
    <sodipodi:guide
       orientation="0,1"
       position="0,411.02362"
       id="guide4210" />
    <sodipodi:guide
       orientation="1,0"
       position="390.14726,212.59843"
       id="guide4230" />
  </sodipodi:namedview>
  <metadata
     id="metadata7">
    <rdf:RDF>
      <cc:Work
         rdf:about="">
        <dc:format>image/svg+xml</dc:format>
        <dc:type
           rdf:resource="http://purl.org/dc/dcmitype/StillImage" />
        <dc:title></dc:title>
      </cc:Work>
    </rdf:RDF>
  </metadata>
  <g
     inkscape:groupmode="layer"
     id="layer5"
     inkscape:label="Mounting Holes">
    <path
       sodipodi:type="arc"
       style="fill:none;stroke:#000000;stroke-width:0.35433072;stroke-miterlimit:4;stroke-opacity:1;stroke-dasharray:none"
       id="path4212"
       sodipodi:cx="109.71429"
       sodipodi:cy="124.6751"
       sodipodi:rx="9.5403728"
       sodipodi:ry="7.9503107"
       d="m 119.25466,124.6751 a 9.5403728,7.9503107 0 1 1 -19.08075,0 9.5403728,7.9503107 0 1 1 19.08075,0 z"
       transform="matrix(0.6551941,0,0,0.78623292,140.71427,-83.850453)" />
    <path
       transform="matrix(0.6551941,0,0,0.78623292,339.13947,114.57474)"
       d="m 119.25466,124.6751 a 9.5403728,7.9503107 0 1 1 -19.08075,0 9.5403728,7.9503107 0 1 1 19.08075,0 z"
       sodipodi:ry="7.9503107"
       sodipodi:rx="9.5403728"
       sodipodi:cy="124.6751"
       sodipodi:cx="109.71429"
       id="path4214"
       style="fill:none;stroke:#000000;stroke-width:0.35433072;stroke-miterlimit:4;stroke-opacity:1;stroke-dasharray:none"
       sodipodi:type="arc" />
    <path
       sodipodi:type="arc"
       style="fill:none;stroke:#000000;stroke-width:0.35433072;stroke-miterlimit:4;stroke-opacity:1;stroke-dasharray:none"
       id="path4216"
       sodipodi:cx="109.71429"
       sodipodi:cy="124.6751"
       sodipodi:rx="9.5403728"
       sodipodi:ry="7.9503107"
       d="m 119.25466,124.6751 a 9.5403728,7.9503107 0 1 1 -19.08075,0 9.5403728,7.9503107 0 1 1 19.08075,0 z"
       transform="matrix(0.6551941,0,0,0.78623292,-57.710925,-83.850453)" />
    <path
       transform="matrix(0.6551941,0,0,0.78623292,-57.002264,114.57474)"
       d="m 119.25466,124.6751 a 9.5403728,7.9503107 0 1 1 -19.08075,0 9.5403728,7.9503107 0 1 1 19.08075,0 z"
       sodipodi:ry="7.9503107"
       sodipodi:rx="9.5403728"
       sodipodi:cy="124.6751"
       sodipodi:cx="109.71429"
       id="path4218"
       style="fill:none;stroke:#000000;stroke-width:0.35433072;stroke-miterlimit:4;stroke-opacity:1;stroke-dasharray:none"
       sodipodi:type="arc" />
    <path
       sodipodi:type="arc"
       style="fill:none;stroke:#000000;stroke-width:0.35433072;stroke-miterlimit:4;stroke-opacity:1;stroke-dasharray:none"
       id="path4220"
       sodipodi:cx="109.71429"
       sodipodi:cy="124.6751"
       sodipodi:rx="9.5403728"
       sodipodi:ry="7.9503107"
       d="m 119.25466,124.6751 a 9.5403728,7.9503107 0 1 1 -19.08075,0 9.5403728,7.9503107 0 1 1 19.08075,0 z"
       transform="matrix(0.6551941,0,0,0.78623292,-57.710925,312.99994)" />
    <path
       transform="matrix(0.6551941,0,0,0.78623292,140.71427,312.99994)"
       d="m 119.25466,124.6751 a 9.5403728,7.9503107 0 1 1 -19.08075,0 9.5403728,7.9503107 0 1 1 19.08075,0 z"
       sodipodi:ry="7.9503107"
       sodipodi:rx="9.5403728"
       sodipodi:cy="124.6751"
       sodipodi:cx="109.71429"
       id="path4222"
       style="fill:none;stroke:#000000;stroke-width:0.35433072;stroke-miterlimit:4;stroke-opacity:1;stroke-dasharray:none"
       sodipodi:type="arc" />
    <path
       sodipodi:type="arc"
       style="fill:none;stroke:#000000;stroke-width:0.35433072;stroke-miterlimit:4;stroke-opacity:1;stroke-dasharray:none"
       id="path4224"
       sodipodi:cx="109.71429"
       sodipodi:cy="124.6751"
       sodipodi:rx="9.5403728"
       sodipodi:ry="7.9503107"
       d="m 119.25466,124.6751 a 9.5403728,7.9503107 0 1 1 -19.08075,0 9.5403728,7.9503107 0 1 1 19.08075,0 z"
       transform="matrix(0.6551941,0,0,0.78623292,140.71427,114.57474)" />
    <path
       sodipodi:type="arc"
       style="fill:none;stroke:#000000;stroke-width:0.35433072;stroke-miterlimit:4;stroke-opacity:1;stroke-dasharray:none"
       id="path4226"
       sodipodi:cx="109.71429"
       sodipodi:cy="124.6751"
       sodipodi:rx="9.5403728"
       sodipodi:ry="7.9503107"
       d="m 119.25466,124.6751 a 9.5403728,7.9503107 0 1 1 -19.08075,0 9.5403728,7.9503107 0 1 1 19.08075,0 z"
       transform="matrix(0.6551941,0,0,0.78623292,339.13947,312.99994)" />
    <path
       transform="matrix(0.6551941,0,0,0.78623292,339.13947,-83.850453)"
       d="m 119.25466,124.6751 a 9.5403728,7.9503107 0 1 1 -19.08075,0 9.5403728,7.9503107 0 1 1 19.08075,0 z"
       sodipodi:ry="7.9503107"
       sodipodi:rx="9.5403728"
       sodipodi:cy="124.6751"
       sodipodi:cx="109.71429"
       id="path4228"
       style="fill:none;stroke:#000000;stroke-width:0.35433072;stroke-miterlimit:4;stroke-opacity:1;stroke-dasharray:none"
       sodipodi:type="arc" />
  </g>
  <g
     inkscape:groupmode="layer"
     id="layer3"
     inkscape:label="Text"
     style="display:inline">
    <text
       transform="translate(0,-627.16535)"
       xml:space="preserve"
       style="font-size:5px;font-style:normal;font-weight:normal;line-height:125%;letter-spacing:0px;word-spacing:0px;fill:#000000;fill-opacity:1;stroke:none;font-family:Sans"
       x="336.61417"
       y="702.41022"
       id="text4000"
       sodipodi:linespacing="125%"><tspan
         sodipodi:role="line"
         id="tspan4002"
         x="336.61417"
         y="702.41022">MCU</tspan></text>
    <text
       transform="translate(0,-627.16535)"
       xml:space="preserve"
       style="font-size:5px;font-style:normal;font-weight:normal;line-height:125%;letter-spacing:0px;word-spacing:0px;fill:#000000;fill-opacity:1;stroke:none;font-family:Sans"
       x="336.61417"
       y="744.68518"
       id="text4004"
       sodipodi:linespacing="125%"><tspan
         sodipodi:role="line"
         id="tspan4006"
         x="336.61417"
         y="744.68518">OPA/B</tspan></text>
    <text
       transform="translate(0,-627.16535)"
       xml:space="preserve"
       style="font-size:5px;font-style:normal;font-weight:normal;line-height:125%;letter-spacing:0px;word-spacing:0px;fill:#000000;fill-opacity:1;stroke:none;font-family:Sans"
       x="336.61417"
       y="785.62927"
       id="text4008"
       sodipodi:linespacing="125%"><tspan
         sodipodi:role="line"
         id="tspan4010"
         x="336.61417"
         y="785.62927">DAC</tspan></text>
    <text
       xml:space="preserve"
       style="font-size:5px;font-style:normal;font-weight:normal;line-height:125%;letter-spacing:0px;word-spacing:0px;fill:#000000;fill-opacity:1;stroke:none;font-family:Sans"
       x="389.18011"
       y="38.811745"
       id="text4012"
       sodipodi:linespacing="125%"><tspan
         sodipodi:role="line"
         id="tspan4014"
         x="389.18011"
         y="38.811745">1.25V</tspan></text>
    <text
       xml:space="preserve"
       style="font-size:5px;font-style:normal;font-weight:normal;line-height:125%;letter-spacing:0px;word-spacing:0px;fill:#000000;fill-opacity:1;stroke:none;font-family:Sans"
       x="391.03107"
       y="95.209282"
       id="text4016"
       sodipodi:linespacing="125%"><tspan
         sodipodi:role="line"
         id="tspan4018"
         x="391.03107"
         y="95.209282">2.5V</tspan></text>
    <text
       xml:space="preserve"
       style="font-size:5px;font-style:normal;font-weight:normal;line-height:125%;letter-spacing:0px;word-spacing:0px;fill:#000000;fill-opacity:1;stroke:none;font-family:Sans"
       x="388.7702"
       y="65.445305"
       id="text4020"
       sodipodi:linespacing="125%"><tspan
         sodipodi:role="line"
         id="tspan4022"
         x="388.7702"
         y="65.445305">3.3V</tspan></text>
    <text
       xml:space="preserve"
       style="font-size:5px;font-style:normal;font-weight:normal;line-height:125%;letter-spacing:0px;word-spacing:0px;fill:#000000;fill-opacity:1;stroke:none;font-family:Sans"
       x="390.23602"
       y="121.03533"
       id="text4024"
       sodipodi:linespacing="125%"><tspan
         sodipodi:role="line"
         id="tspan4026"
         x="390.23602"
         y="121.03533">SWA/B</tspan></text>
    <text
       xml:space="preserve"
       style="font-size:5px;font-style:normal;font-weight:normal;line-height:125%;letter-spacing:0px;word-spacing:0px;fill:#000000;fill-opacity:1;stroke:none;font-family:Sans"
       x="367.29193"
       y="94.82415"
       id="text4028"
       sodipodi:linespacing="125%"><tspan
         sodipodi:role="line"
         id="tspan4030"
         x="367.29193"
         y="94.82415">1uF</tspan></text>
    <text
       xml:space="preserve"
       style="font-size:5px;font-style:normal;font-weight:normal;line-height:125%;letter-spacing:0px;word-spacing:0px;fill:#000000;fill-opacity:1;stroke:none;font-family:Sans"
       x="367.67703"
       y="118.29002"
       id="text4032"
       sodipodi:linespacing="125%"><tspan
         sodipodi:role="line"
         id="tspan4034"
         x="367.67703"
         y="118.29002">.01uF</tspan></text>
    <text
       xml:space="preserve"
       style="font-size:5px;font-style:normal;font-weight:normal;line-height:125%;letter-spacing:0px;word-spacing:0px;fill:#000000;fill-opacity:1;stroke:none;font-family:Sans"
       x="388.95813"
       y="178.54349"
       id="text4036"
       sodipodi:linespacing="125%"><tspan
         sodipodi:role="line"
         id="tspan4038"
         x="388.95813"
         y="178.54349">Rarray</tspan></text>
    <text
       xml:space="preserve"
       style="font-size:5px;font-style:normal;font-weight:normal;line-height:125%;letter-spacing:0px;word-spacing:0px;fill:#000000;fill-opacity:1;stroke:none;font-family:Sans"
       x="391.27161"
       y="149.00757"
       id="text4040"
       sodipodi:linespacing="125%"><tspan
         sodipodi:role="line"
         id="tspan4042"
         x="391.27161"
         y="149.00757">RSA/B</tspan></text>
    <text
       xml:space="preserve"
       style="font-size:5px;font-style:normal;font-weight:normal;line-height:125%;letter-spacing:0px;word-spacing:0px;fill:#000000;fill-opacity:1;stroke:none;font-family:Sans"
       x="336.42746"
       y="199.76593"
       id="text4044"
       sodipodi:linespacing="125%"><tspan
         sodipodi:role="line"
         id="tspan4046"
         x="336.42746"
         y="199.76593">CSA/B</tspan></text>
    <text
       xml:space="preserve"
       style="font-size:5px;font-style:normal;font-weight:normal;line-height:125%;letter-spacing:0px;word-spacing:0px;fill:#000000;fill-opacity:1;stroke:none;font-family:Sans"
       x="368.71994"
       y="200.89027"
       id="text4048"
       sodipodi:linespacing="125%"><tspan
         sodipodi:role="line"
         id="tspan4050"
         x="368.71994"
         y="200.89027">OPC</tspan></text>
    <text
       transform="translate(0,-627.16535)"
       xml:space="preserve"
       style="font-size:55px;font-style:normal;font-weight:normal;line-height:125%;letter-spacing:0px;word-spacing:0px;fill:#000000;fill-opacity:1;stroke:none;font-family:Sans"
       x="81.698807"
       y="747.92426"
       id="text4075"
       sodipodi:linespacing="125%"><tspan
         sodipodi:role="line"
         id="tspan4077"
         x="81.698807"
         y="747.92426">CEE-A</tspan></text>
    <text
       xml:space="preserve"
       style="font-size:55px;font-style:normal;font-weight:normal;line-height:125%;letter-spacing:0px;word-spacing:0px;fill:#000000;fill-opacity:1;stroke:none;font-family:Sans"
       x="75.331032"
       y="321.75723"
       id="text4079"
       sodipodi:linespacing="125%"><tspan
         sodipodi:role="line"
         id="tspan4081"
         x="75.331032"
         y="321.75723">CEE-B</tspan></text>
  </g>
  <g
     inkscape:groupmode="layer"
     id="layer4"
     inkscape:label="Part Holes"
     style="display:inline">
    <g
       id="tqfp44"
       inkscape:label="#g3777"
       transform="translate(336.75978,-985.54209)">
      <path
         d="m 42.519685,1048.8189 0,3.5433 -38.976378,0 0,-3.5433 -3.543307,0 0,-38.9764 3.543307,0 M 0,1013.3858 l 0,-3.5433 38.976378,0 0,3.5433 3.543307,0 0,38.9764 -3.543307,0"
         style="fill:none;stroke:#000000;stroke-width:1px;stroke-linecap:butt;stroke-linejoin:miter;stroke-opacity:1"
         id="path3000"
         inkscape:connector-curvature="0" />
      <path
         transform="translate(-37.204725,620.07872)"
         d="m 42.519685,384.44882 a 1.7716535,1.7716535 0 1 1 -3.543307,0 1.7716535,1.7716535 0 1 1 3.543307,0 z"
         sodipodi:ry="1.7716535"
         sodipodi:rx="1.7716535"
         sodipodi:cy="384.44882"
         sodipodi:cx="40.748032"
         id="path3003"
         style="fill:none;stroke:#000000;stroke-width:0.35433072;stroke-miterlimit:4;stroke-opacity:1;stroke-dasharray:none"
         sodipodi:type="arc" />
      <path
         sodipodi:type="arc"
         style="fill:none;stroke:#000000;stroke-width:0.35433072;stroke-miterlimit:4;stroke-opacity:1;stroke-dasharray:none"
         id="path3793"
         sodipodi:cx="40.748032"
         sodipodi:cy="384.44882"
         sodipodi:rx="1.7716535"
         sodipodi:ry="1.7716535"
         d="m 42.519685,384.44882 a 1.7716535,1.7716535 0 1 1 -3.543307,0 1.7716535,1.7716535 0 1 1 3.543307,0 z"
         transform="translate(-37.204725,620.07872)" />
    </g>
    <g
       id="sot23"
       inkscape:label="#g3860"
       transform="translate(391.01774,-1019.0027)">
      <path
         transform="translate(0,627.16535)"
         inkscape:connector-curvature="0"
         id="path3791"
         d="m 0,416.33857 9.7440945,0 0,2.65748 0.8858265,0 0,6.20079 -10.629921,0 z"
         style="fill:none;stroke:#000000;stroke-width:1px;stroke-linecap:butt;stroke-linejoin:miter;stroke-opacity:1" />
      <path
         transform="translate(22.027779,632.65198)"
         d="m -16.89441,405.71857 c 0,0.87816 -0.711895,1.59006 -1.590062,1.59006 -0.878167,0 -1.590062,-0.7119 -1.590062,-1.59006 0,-0.87817 0.711895,-1.59007 1.590062,-1.59007 0.878167,0 1.590062,0.7119 1.590062,1.59007 z"
         sodipodi:ry="1.5900621"
         sodipodi:rx="1.5900621"
         sodipodi:cy="405.71857"
         sodipodi:cx="-18.484472"
         id="path3858"
         style="fill:none;stroke:#000000;stroke-width:0.35433072;stroke-miterlimit:4;stroke-opacity:1;stroke-dasharray:none"
         sodipodi:type="arc" />
    </g>
    <g
       id="soic8"
       inkscape:label="#g3878"
       transform="translate(336.61417,-860.62204)">
      <path
         transform="translate(0,627.16535)"
         inkscape:connector-curvature="0"
         id="path3868"
         d="m 0,403.937 0,21.25984 17.716535,0 0,-21.25984 z"
         style="fill:none;stroke:#000000;stroke-width:1px;stroke-linecap:butt;stroke-linejoin:miter;stroke-opacity:1" />
      <path
         transform="translate(3.8012422,623.62204)"
         d="m 3.5433071,402.16534 a 1.7716535,1.7716535 0 1 1 -3.5433071,0 1.7716535,1.7716535 0 1 1 3.5433071,0 z"
         sodipodi:ry="1.7716535"
         sodipodi:rx="1.7716535"
         sodipodi:cy="402.16534"
         sodipodi:cx="1.7716535"
         id="path3876"
         style="fill:none;stroke:#000000;stroke-width:0.35433072;stroke-miterlimit:4;stroke-opacity:1;stroke-dasharray:none"
         sodipodi:type="arc" />
    </g>
    <g
       id="qfn12"
       inkscape:label="#g3894"
       transform="translate(336.61417,-943.54887)">
      <path
         transform="translate(0,627.16535)"
         inkscape:connector-curvature="0"
         id="path3882"
         d="m 0,407.4803 0,17.71654 17.716535,0 0,-17.71654 z"
         style="fill:none;stroke:#000000;stroke-width:1px;stroke-linecap:butt;stroke-linejoin:miter;stroke-opacity:1" />
      <path
         transform="translate(3.7716536,623.62204)"
         d="m 3.5433071,405.70865 a 1.7716535,1.771654 0 1 1 -3.5433071,0 1.7716535,1.771654 0 1 1 3.5433071,0 z"
         sodipodi:ry="1.771654"
         sodipodi:rx="1.7716535"
         sodipodi:cy="405.70865"
         sodipodi:cx="1.7716535"
         id="path3892"
         style="fill:none;stroke:#000000;stroke-width:0.35433072;stroke-miterlimit:4;stroke-opacity:1;stroke-dasharray:none"
         sodipodi:type="arc" />
    </g>
    <g
       id="soic14"
       inkscape:label="#g3902"
       transform="translate(336.61417,-900.98037)">
      <path
         transform="translate(0,627.16535)"
         inkscape:connector-curvature="0"
         id="path3898"
         d="m 0,403.937 30.649606,0 0,21.25984 -30.649606,0 z"
         style="fill:none;stroke:#000000;stroke-width:1px;stroke-linecap:butt;stroke-linejoin:miter;stroke-opacity:1" />
      <path
         transform="translate(3.7716536,620.07874)"
         d="m 3.5433071,405.70865 a 1.7716535,1.771654 0 1 1 -3.5433071,0 1.7716535,1.771654 0 1 1 3.5433071,0 z"
         sodipodi:ry="1.771654"
         sodipodi:rx="1.7716535"
         sodipodi:cy="405.70865"
         sodipodi:cx="1.7716535"
         id="path3900"
         style="fill:none;stroke:#000000;stroke-width:0.35433072;stroke-miterlimit:4;stroke-opacity:1;stroke-dasharray:none"
         sodipodi:type="arc" />
    </g>
    <g
       id="1206"
       inkscape:label="#g3916"
       transform="translate(390.29774,-882.48049)">
      <path
         transform="translate(3.7716536,623.62205)"
         d="m 3.5433071,417.75589 c 0,0.97846 -0.7931963,1.77165 -1.7716536,1.77165 C 0.7931963,419.52754 0,418.73435 0,417.75589 c 0,-0.97846 0.7931963,-1.77165 1.7716535,-1.77165 0.9784573,0 1.7716536,0.79319 1.7716536,1.77165 z"
         sodipodi:ry="1.7716535"
         sodipodi:rx="1.7716535"
         sodipodi:cy="417.75589"
         sodipodi:cx="1.7716535"
         id="path3912"
         style="fill:none;stroke:#000000;stroke-width:0.35433072;stroke-miterlimit:4;stroke-opacity:1;stroke-dasharray:none"
         sodipodi:type="arc" />
      <path
         transform="translate(0,627.16535)"
         inkscape:connector-curvature="0"
         id="path3914"
         d="m 0,419.52755 11.338583,0 0,5.66929 -11.338583,0 z"
         style="fill:none;stroke:#000000;stroke-width:1px;stroke-linecap:butt;stroke-linejoin:miter;stroke-opacity:1" />
    </g>
    <g
       id="0805"
       inkscape:label="#g3924"
       transform="translate(367.22945,-964.76517)">
      <path
         transform="translate(3.7716536,623.62204)"
         d="m 3.5433071,419.17322 a 1.7716535,1.7716535 0 1 1 -3.5433071,0 1.7716535,1.7716535 0 1 1 3.5433071,0 z"
         sodipodi:ry="1.7716535"
         sodipodi:rx="1.7716535"
         sodipodi:cy="419.17322"
         sodipodi:cx="1.7716535"
         id="path3920"
         style="fill:none;stroke:#000000;stroke-width:0.35433072;stroke-miterlimit:4;stroke-opacity:1;stroke-dasharray:none"
         sodipodi:type="arc" />
      <path
         transform="translate(0,627.16535)"
         inkscape:connector-curvature="0"
         id="path3922"
         d="m 0,420.94487 0,4.25197 7.0866142,0 0,-4.25197 z"
         style="fill:none;stroke:#000000;stroke-width:1px;stroke-linecap:butt;stroke-linejoin:miter;stroke-opacity:1" />
    </g>
    <g
       transform="translate(366.4651,-860.5972)"
       inkscape:label="#g3878"
       id="g3944">
      <path
         style="fill:none;stroke:#000000;stroke-width:1px;stroke-linecap:butt;stroke-linejoin:miter;stroke-opacity:1"
         d="m 0,403.937 0,21.25984 17.716535,0 0,-21.25984 z"
         id="path3946"
         inkscape:connector-curvature="0"
         transform="translate(0,627.16535)" />
      <path
         sodipodi:type="arc"
         style="fill:none;stroke:#000000;stroke-width:0.35433072;stroke-miterlimit:4;stroke-opacity:1;stroke-dasharray:none"
         id="path3948"
         sodipodi:cx="1.7716535"
         sodipodi:cy="402.16534"
         sodipodi:rx="1.7716535"
         sodipodi:ry="1.7716535"
         d="m 3.5433071,402.16534 a 1.7716535,1.7716535 0 1 1 -3.5433071,0 1.7716535,1.7716535 0 1 1 3.5433071,0 z"
         transform="translate(3.8012422,623.62204)" />
    </g>
    <g
       transform="translate(367.57116,-941.30881)"
       inkscape:label="#g3924"
       id="g3950">
      <path
         sodipodi:type="arc"
         style="fill:none;stroke:#000000;stroke-width:0.35433072;stroke-miterlimit:4;stroke-opacity:1;stroke-dasharray:none"
         id="path3952"
         sodipodi:cx="1.7716535"
         sodipodi:cy="419.17322"
         sodipodi:rx="1.7716535"
         sodipodi:ry="1.7716535"
         d="m 3.5433071,419.17322 a 1.7716535,1.7716535 0 1 1 -3.5433071,0 1.7716535,1.7716535 0 1 1 3.5433071,0 z"
         transform="translate(3.7716536,623.62204)" />
      <path
         style="fill:none;stroke:#000000;stroke-width:1px;stroke-linecap:butt;stroke-linejoin:miter;stroke-opacity:1"
         d="m 0,420.94487 0,4.25197 7.0866142,0 0,-4.25197 z"
         id="path3954"
         inkscape:connector-curvature="0"
         transform="translate(0,627.16535)" />
    </g>
    <g
       transform="translate(390.57883,-910.65388)"
       inkscape:label="#g3916"
       id="g3956">
      <path
         sodipodi:type="arc"
         style="fill:none;stroke:#000000;stroke-width:0.35433072;stroke-miterlimit:4;stroke-opacity:1;stroke-dasharray:none"
         id="path3958"
         sodipodi:cx="1.7716535"
         sodipodi:cy="417.75589"
         sodipodi:rx="1.7716535"
         sodipodi:ry="1.7716535"
         d="m 3.5433071,417.75589 c 0,0.97846 -0.7931963,1.77165 -1.7716536,1.77165 C 0.7931963,419.52754 0,418.73435 0,417.75589 c 0,-0.97846 0.7931963,-1.77165 1.7716535,-1.77165 0.9784573,0 1.7716536,0.79319 1.7716536,1.77165 z"
         transform="translate(3.7716536,623.62205)" />
      <path
         style="fill:none;stroke:#000000;stroke-width:1px;stroke-linecap:butt;stroke-linejoin:miter;stroke-opacity:1"
         d="m 0,419.52755 11.338583,0 0,5.66929 -11.338583,0 z"
         id="path3960"
         inkscape:connector-curvature="0"
         transform="translate(0,627.16535)" />
    </g>
    <g
       transform="translate(389.8934,-991.91078)"
       inkscape:label="#g3860"
       id="g3962">
      <path
         style="fill:none;stroke:#000000;stroke-width:1px;stroke-linecap:butt;stroke-linejoin:miter;stroke-opacity:1"
         d="m 0,416.33857 9.7440945,0 0,2.65748 0.8858265,0 0,6.20079 -10.629921,0 z"
         id="path3964"
         inkscape:connector-curvature="0"
         transform="translate(0,627.16535)" />
      <path
         sodipodi:type="arc"
         style="fill:none;stroke:#000000;stroke-width:0.35433072;stroke-miterlimit:4;stroke-opacity:1;stroke-dasharray:none"
         id="path3966"
         sodipodi:cx="-18.484472"
         sodipodi:cy="405.71857"
         sodipodi:rx="1.5900621"
         sodipodi:ry="1.5900621"
         d="m -16.89441,405.71857 c 0,0.87816 -0.711895,1.59006 -1.590062,1.59006 -0.878167,0 -1.590062,-0.7119 -1.590062,-1.59006 0,-0.87817 0.711895,-1.59007 1.590062,-1.59007 0.878167,0 1.590062,0.7119 1.590062,1.59007 z"
         transform="translate(22.027779,632.65198)" />
    </g>
    <g
       id="g3968"
       inkscape:label="#g3860"
       transform="translate(389.8286,-936.44056)">
      <path
         transform="translate(0,627.16535)"
         inkscape:connector-curvature="0"
         id="path3970"
         d="m 0,416.33857 9.7440945,0 0,2.65748 0.8858265,0 0,6.20079 -10.629921,0 z"
         style="fill:none;stroke:#000000;stroke-width:1px;stroke-linecap:butt;stroke-linejoin:miter;stroke-opacity:1" />
      <path
         transform="translate(22.027779,632.65198)"
         d="m -16.89441,405.71857 c 0,0.87816 -0.711895,1.59006 -1.590062,1.59006 -0.878167,0 -1.590062,-0.7119 -1.590062,-1.59006 0,-0.87817 0.711895,-1.59007 1.590062,-1.59007 0.878167,0 1.590062,0.7119 1.590062,1.59007 z"
         sodipodi:ry="1.5900621"
         sodipodi:rx="1.5900621"
         sodipodi:cy="405.71857"
         sodipodi:cx="-18.484472"
         id="path3972"
         style="fill:none;stroke:#000000;stroke-width:0.35433072;stroke-miterlimit:4;stroke-opacity:1;stroke-dasharray:none"
         sodipodi:type="arc" />
    </g>
    <g
       transform="translate(391.01774,-963.0027)"
       inkscape:label="#g3860"
       id="g3974">
      <path
         style="fill:none;stroke:#000000;stroke-width:1px;stroke-linecap:butt;stroke-linejoin:miter;stroke-opacity:1"
         d="m 0,416.33857 9.7440945,0 0,2.65748 0.8858265,0 0,6.20079 -10.629921,0 z"
         id="path3976"
         inkscape:connector-curvature="0"
         transform="translate(0,627.16535)" />
      <path
         sodipodi:type="arc"
         style="fill:none;stroke:#000000;stroke-width:0.35433072;stroke-miterlimit:4;stroke-opacity:1;stroke-dasharray:none"
         id="path3978"
         sodipodi:cx="-18.484472"
         sodipodi:cy="405.71857"
         sodipodi:rx="1.5900621"
         sodipodi:ry="1.5900621"
         d="m -16.89441,405.71857 c 0,0.87816 -0.711895,1.59006 -1.590062,1.59006 -0.878167,0 -1.590062,-0.7119 -1.590062,-1.59006 0,-0.87817 0.711895,-1.59007 1.590062,-1.59007 0.878167,0 1.590062,0.7119 1.590062,1.59007 z"
         transform="translate(22.027779,632.65198)" />
    </g>
  </g>
  <g
     inkscape:label="Board Cutouts"
     inkscape:groupmode="layer"
     id="layer1"
     transform="translate(0,-627.16535)"
     style="display:inline">
    <path
       style="fill:none;stroke:#000000;stroke-width:1px;stroke-linecap:butt;stroke-linejoin:miter;stroke-opacity:1"
       d="m 27.074803,848.12204 0,177.16536 283.464567,0 0,-177.16536 z"
       id="path3936"
       inkscape:connector-curvature="0" />
    <path
       inkscape:connector-curvature="0"
       id="path3938"
       d="m 27.074803,653.24016 0,177.16534 283.464567,0 0,-177.16534 z"
       style="fill:none;stroke:#000000;stroke-width:1px;stroke-linecap:butt;stroke-linejoin:miter;stroke-opacity:1" />
    <text
       xml:space="preserve"
       style="font-size:55px;font-style:normal;font-weight:normal;line-height:125%;letter-spacing:0px;word-spacing:0px;fill:#000000;fill-opacity:1;stroke:none;font-family:Sans"
       x="97.817902"
       y="110.3806"
       id="text4071"
       sodipodi:linespacing="125%"
       transform="translate(0,627.16535)"><tspan
         sodipodi:role="line"
         id="tspan4073"
         x="97.817902"
         y="110.3806" /></text>
  </g>
</svg>
